<svg id="_2" data-name="2" xmlns="http://www.w3.org/2000/svg" viewBox="0 0 500 500"><title>ico_search</title><path d="M490.7,443.989L383.83,335.278a210.046,210.046,0,0,0,39.98-121.687v-0.046l0.009-1.763A210.905,210.905,0,0,0,215.56.919V0.909C214.1,0.855,213.2.873,212.883,0.873A210.921,210.921,0,0,0,2.01,210.01v-0.073L2,211.827A210.922,210.922,0,0,0,211.127,422.691h1.845a210.015,210.015,0,0,0,125.3-41.293L444.474,489.431A32.412,32.412,0,1,0,490.7,443.989Zm-131.718-230.9v-0.036A146.065,146.065,0,0,1,212.974,357.87h-1.3A146.1,146.1,0,0,1,66.824,211.828l0.01-1.2v-0.073A146.108,146.108,0,0,1,212.884,65.7h0.4l0.389,0.008,0.469,0.01A146.111,146.111,0,0,1,359,211.784Z" fill="#fff"/></svg>